<svg width="16" height="16" viewBox="0 0 16 16" fill="none" xmlns="http://www.w3.org/2000/svg">
<path d="M9.33137 2.6665C9.5719 2.6665 9.80795 2.73156 10.0145 2.85479C10.2211 2.97803 10.3905 3.15484 10.5047 3.3665L10.8287 3.9665C10.943 4.17817 11.1123 4.35498 11.3189 4.47821C11.5255 4.60145 11.7615 4.66651 12.002 4.6665H13.3334C13.687 4.6665 14.0261 4.80698 14.2762 5.05703C14.5262 5.30708 14.6667 5.64622 14.6667 5.99984V11.9998C14.6667 12.3535 14.5262 12.6926 14.2762 12.9426C14.0261 13.1927 13.687 13.3332 13.3334 13.3332H2.66671C2.31309 13.3332 1.97395 13.1927 1.7239 12.9426C1.47385 12.6926 1.33337 12.3535 1.33337 11.9998V5.99984C1.33337 5.64622 1.47385 5.30708 1.7239 5.05703C1.97395 4.80698 2.31309 4.6665 2.66671 4.6665H3.99804C4.23832 4.66652 4.47414 4.6016 4.68056 4.47861C4.88698 4.35563 5.05633 4.17915 5.17071 3.96784L5.49671 3.36517C5.61108 3.15386 5.78043 2.97738 5.98685 2.85439C6.19327 2.73141 6.42909 2.66649 6.66937 2.6665H9.33137Z" stroke="white" stroke-width="1.33333" stroke-linecap="round" stroke-linejoin="round"/>
<path d="M8 10.6665C9.10457 10.6665 10 9.77107 10 8.6665C10 7.56193 9.10457 6.6665 8 6.6665C6.89543 6.6665 6 7.56193 6 8.6665C6 9.77107 6.89543 10.6665 8 10.6665Z" stroke="white" stroke-width="1.33333" stroke-linecap="round" stroke-linejoin="round"/>
</svg>
