<svg width="32" height="32" viewBox="0 0 32 32" fill="none" xmlns="http://www.w3.org/2000/svg">
<circle cx="16" cy="16" r="16" fill="#251D18" fill-opacity="0.8"/>
<path d="M17.3314 10.6665C17.5719 10.6665 17.808 10.7316 18.0145 10.8548C18.2211 10.978 18.3905 11.1548 18.5047 11.3665L18.8287 11.9665C18.943 12.1782 19.1123 12.355 19.3189 12.4782C19.5255 12.6014 19.7615 12.6665 20.002 12.6665H21.3334C21.687 12.6665 22.0261 12.807 22.2762 13.057C22.5262 13.3071 22.6667 13.6462 22.6667 13.9998V19.9998C22.6667 20.3535 22.5262 20.6926 22.2762 20.9426C22.0261 21.1927 21.687 21.3332 21.3334 21.3332H10.6667C10.3131 21.3332 9.97395 21.1927 9.7239 20.9426C9.47385 20.6926 9.33337 20.3535 9.33337 19.9998V13.9998C9.33337 13.6462 9.47385 13.3071 9.7239 13.057C9.97395 12.807 10.3131 12.6665 10.6667 12.6665H11.998C12.2383 12.6665 12.4741 12.6016 12.6806 12.4786C12.887 12.3556 13.0563 12.1792 13.1707 11.9678L13.4967 11.3652C13.6111 11.1539 13.7804 10.9774 13.9869 10.8544C14.1933 10.7314 14.4291 10.6665 14.6694 10.6665H17.3314Z" stroke="white" stroke-width="1.33333" stroke-linecap="round" stroke-linejoin="round"/>
<path d="M16 18.6665C17.1046 18.6665 18 17.7711 18 16.6665C18 15.5619 17.1046 14.6665 16 14.6665C14.8954 14.6665 14 15.5619 14 16.6665C14 17.7711 14.8954 18.6665 16 18.6665Z" stroke="white" stroke-width="1.33333" stroke-linecap="round" stroke-linejoin="round"/>
</svg>
