<svg width="64" height="64" viewBox="0 0 64 64" fill="none" xmlns="http://www.w3.org/2000/svg">
<rect width="64" height="64" rx="16" fill="#DF6C20" fill-opacity="0.101961"/>
<path d="M18.6667 28.6669C18.6667 27.1832 19.1168 25.7343 19.9575 24.5118C20.7983 23.2892 21.99 22.3504 23.3755 21.8194C24.761 21.2884 26.2749 21.1901 27.7174 21.5376C29.1598 21.8851 30.463 22.6619 31.4547 23.7655C31.5245 23.8402 31.609 23.8998 31.7028 23.9405C31.7966 23.9812 31.8978 24.0022 32 24.0022C32.1023 24.0022 32.2034 23.9812 32.2973 23.9405C32.3911 23.8998 32.4755 23.8402 32.5454 23.7655C33.5339 22.6547 34.8374 21.8714 36.2822 21.5197C37.727 21.168 39.2447 21.2647 40.6332 21.7969C42.0217 22.329 43.2152 23.2715 44.0548 24.4988C44.8945 25.726 45.3404 27.1799 45.3334 28.6669C45.3334 31.7202 43.3334 34.0002 41.3334 36.0002L34.0107 43.0842C33.7622 43.3696 33.4559 43.5988 33.1121 43.7566C32.7682 43.9145 32.3947 43.9973 32.0164 43.9997C31.6381 44.0021 31.2636 43.924 30.9177 43.7705C30.5719 43.617 30.2627 43.3917 30.0107 43.1095L22.6667 36.0002C20.6667 34.0002 18.6667 31.7335 18.6667 28.6669Z" stroke="#DF6C20" stroke-width="2" stroke-linecap="round" stroke-linejoin="round"/>
</svg>
