<svg width="18" height="18" viewBox="0 0 18 18" fill="none" xmlns="http://www.w3.org/2000/svg">
<g clip-path="url(#clip0_1406_1005)">
<path d="M17.64 9.20011C17.64 8.56011 17.58 7.95011 17.48 7.36011H9V10.8401H13.84C13.7398 11.3917 13.5286 11.9173 13.2192 12.3848C12.9097 12.8524 12.5086 13.2522 12.04 13.5601V15.8201H14.96C15.8456 14.966 16.5418 13.9354 17.0035 12.7949C17.4652 11.6545 17.6821 10.4297 17.64 9.20011Z" fill="#4285F4"/>
<path d="M8.99996 18C11.43 18 13.47 17.2 14.96 15.82L12.04 13.56C11.24 14.1 10.2 14.42 8.99996 14.42C6.65996 14.42 4.67996 12.84 3.96996 10.72H0.959961V13.06C1.71154 14.5469 2.8611 15.796 4.28062 16.6682C5.70014 17.5404 7.3339 18.0014 8.99996 18Z" fill="#34A853"/>
<path d="M3.97001 10.7199C3.78078 10.1661 3.68283 9.5852 3.68001 8.99994C3.68001 8.39994 3.78001 7.81994 3.96001 7.27994V4.93994H0.960013C0.326431 6.1994 -0.00240261 7.5901 1.32154e-05 8.99994C1.32154e-05 10.4499 0.350013 11.8199 0.960013 13.0599L3.97001 10.7199Z" fill="#FBBC05"/>
<path d="M8.99996 3.58C10.32 3.58 11.5 4.03 12.44 4.93L15.02 2.35C13.46 0.890003 11.43 3.37092e-06 8.99996 3.37092e-06C7.3339 -0.00143835 5.70014 0.459609 4.28062 1.3318C2.8611 2.204 1.71154 3.4531 0.959961 4.94L3.96996 7.28C4.67996 5.16 6.65996 3.58 8.99996 3.58Z" fill="#EA4335"/>
</g>
<defs>
<clipPath id="clip0_1406_1005">
<rect width="18" height="18" fill="white"/>
</clipPath>
</defs>
</svg>
