<svg width="21" height="20" viewBox="0 0 21 20" fill="none" xmlns="http://www.w3.org/2000/svg">
<path d="M5.62595 14.5L12.7863 12.5L14.8321 5.5L7.67176 7.5L5.62595 14.5ZM10.229 11.5C9.8028 11.5 9.44052 11.3542 9.14218 11.0625C8.84383 10.7708 8.69466 10.4167 8.69466 10C8.69466 9.58333 8.84383 9.22917 9.14218 8.9375C9.44052 8.64583 9.8028 8.5 10.229 8.5C10.6552 8.5 11.0175 8.64583 11.3158 8.9375C11.6142 9.22917 11.7634 9.58333 11.7634 10C11.7634 10.4167 11.6142 10.7708 11.3158 11.0625C11.0175 11.3542 10.6552 11.5 10.229 11.5ZM10.229 20C8.814 20 7.48422 19.7375 6.2397 19.2125C4.99517 18.6875 3.9126 17.975 2.99198 17.075C2.07137 16.175 1.34256 15.1167 0.805534 13.9C0.268511 12.6833 0 11.3833 0 10C0 8.61667 0.268511 7.31667 0.805534 6.1C1.34256 4.88333 2.07137 3.825 2.99198 2.925C3.9126 2.025 4.99517 1.3125 6.2397 0.7875C7.48422 0.2625 8.814 0 10.229 0C11.644 0 12.9738 0.2625 14.2183 0.7875C15.4629 1.3125 16.5454 2.025 17.466 2.925C18.3866 3.825 19.1155 4.88333 19.6525 6.1C20.1895 7.31667 20.458 8.61667 20.458 10C20.458 11.3833 20.1895 12.6833 19.6525 13.9C19.1155 15.1167 18.3866 16.175 17.466 17.075C16.5454 17.975 15.4629 18.6875 14.2183 19.2125C12.9738 19.7375 11.644 20 10.229 20ZM10.229 18C12.4964 18 14.4272 17.2208 16.0212 15.6625C17.6152 14.1042 18.4122 12.2167 18.4122 10C18.4122 7.78333 17.6152 5.89583 16.0212 4.3375C14.4272 2.77917 12.4964 2 10.229 2C7.96158 2 6.03085 2.77917 4.43683 4.3375C2.84281 5.89583 2.0458 7.78333 2.0458 10C2.0458 12.2167 2.84281 14.1042 4.43683 15.6625C6.03085 17.2208 7.96158 18 10.229 18Z"/>
</svg>
