<svg width="32" height="32" viewBox="0 0 32 32" fill="none" xmlns="http://www.w3.org/2000/svg">
<rect width="32" height="32" rx="8" fill="#F4F0EC"/>
<path d="M20 13.3335C21.1046 13.3335 22 12.4381 22 11.3335C22 10.2289 21.1046 9.3335 20 9.3335C18.8954 9.3335 18 10.2289 18 11.3335C18 12.4381 18.8954 13.3335 20 13.3335Z" stroke="#8C7B73" stroke-width="1.33333" stroke-linecap="round" stroke-linejoin="round"/>
<path d="M12 18C13.1046 18 14 17.1046 14 16C14 14.8954 13.1046 14 12 14C10.8954 14 10 14.8954 10 16C10 17.1046 10.8954 18 12 18Z" stroke="#8C7B73" stroke-width="1.33333" stroke-linecap="round" stroke-linejoin="round"/>
<path d="M20 22.6665C21.1046 22.6665 22 21.7711 22 20.6665C22 19.5619 21.1046 18.6665 20 18.6665C18.8954 18.6665 18 19.5619 18 20.6665C18 21.7711 18.8954 22.6665 20 22.6665Z" stroke="#8C7B73" stroke-width="1.33333" stroke-linecap="round" stroke-linejoin="round"/>
<path d="M13.7267 17.0068L18.28 19.6602" stroke="#8C7B73" stroke-width="1.33333" stroke-linecap="round" stroke-linejoin="round"/>
<path d="M18.2734 12.3398L13.7267 14.9932" stroke="#8C7B73" stroke-width="1.33333" stroke-linecap="round" stroke-linejoin="round"/>
</svg>
