<svg width="32" height="32" viewBox="0 0 32 32" fill="none" xmlns="http://www.w3.org/2000/svg">
<rect width="32" height="32" rx="8" fill="#F4F0EC"/>
<path d="M10.3659 23C9.99024 23 9.66859 22.8663 9.40088 22.5989C9.13363 22.332 9 22.011 9 21.6358V12.0865C9 11.7113 9.13363 11.3901 9.40088 11.1227C9.66859 10.8558 9.99024 10.7223 10.3659 10.7223H16.461L15.0951 12.0865H10.3659V21.6358H19.9268V16.8952L21.2927 15.5311V21.6358C21.2927 22.011 21.1591 22.332 20.8918 22.5989C20.6241 22.8663 20.3024 23 19.9268 23H10.3659ZM17.9976 11.1145L18.9707 12.0694L14.4634 16.5713V17.5432H15.4195L19.9439 13.0244L20.9171 13.9793L16 18.9074H13.0976V16.0085L17.9976 11.1145ZM20.9171 13.9793L17.9976 11.1145L19.7049 9.40926C19.978 9.13642 20.3054 9 20.6869 9C21.068 9 21.3894 9.13642 21.6512 9.40926L22.6073 10.3812C22.8691 10.6427 23 10.961 23 11.3362C23 11.7113 22.8691 12.0296 22.6073 12.2911L20.9171 13.9793Z" fill="#8C7B73"/>
</svg>
