<svg width="32" height="32" viewBox="0 0 32 32" fill="none" xmlns="http://www.w3.org/2000/svg">
<rect width="32" height="32" rx="8" fill="#F4F0EC"/>
<g clip-path="url(#clip0_1803_3985)">
<path d="M12.8 18.4H14.4V16H17.2V18L20 15.2L17.2 12.4V14.4H13.6C13.3733 14.4 13.1835 14.4765 13.0304 14.6296C12.8768 14.7832 12.8 14.9733 12.8 15.2V18.4ZM16 24C15.8 24 15.6032 23.96 15.4096 23.88C15.2165 23.8 15.04 23.68 14.88 23.52L8.48 17.12C8.32 16.96 8.2 16.7835 8.12 16.5904C8.04 16.3968 8 16.2 8 16C8 15.8 8.04 15.6032 8.12 15.4096C8.2 15.2165 8.32 15.04 8.48 14.88L14.88 8.48C15.04 8.32 15.2165 8.2 15.4096 8.12C15.6032 8.04 15.8 8 16 8C16.2 8 16.3968 8.04 16.5904 8.12C16.7835 8.2 16.96 8.32 17.12 8.48L23.52 14.88C23.68 15.04 23.8 15.2165 23.88 15.4096C23.96 15.6032 24 15.8 24 16C24 16.2 23.96 16.3968 23.88 16.5904C23.8 16.7835 23.68 16.96 23.52 17.12L17.12 23.52C16.96 23.68 16.7835 23.8 16.5904 23.88C16.3968 23.96 16.2 24 16 24ZM12.8 19.2L16 22.4L22.4 16L16 9.6L9.6 16L12.8 19.2Z" fill="#8C7B73"/>
</g>
<defs>
<clipPath id="clip0_1803_3985">
<rect width="16" height="16" fill="white" transform="translate(8 8)"/>
</clipPath>
</defs>
</svg>
