<svg width="10" height="10" viewBox="0 0 10 10" fill="none" xmlns="http://www.w3.org/2000/svg">
<path d="M8.33329 4.16671C8.33329 6.24712 6.02538 8.41379 5.25038 9.08296C5.17818 9.13725 5.09029 9.1666 4.99996 9.1666C4.90963 9.1666 4.82174 9.13725 4.74954 9.08296C3.97454 8.41379 1.66663 6.24712 1.66663 4.16671C1.66663 3.28265 2.01782 2.43481 2.64294 1.80968C3.26806 1.18456 4.1159 0.833374 4.99996 0.833374C5.88401 0.833374 6.73186 1.18456 7.35698 1.80968C7.9821 2.43481 8.33329 3.28265 8.33329 4.16671Z" stroke="white" stroke-linecap="round" stroke-linejoin="round"/>
<path d="M5 5.41663C5.69036 5.41663 6.25 4.85698 6.25 4.16663C6.25 3.47627 5.69036 2.91663 5 2.91663C4.30964 2.91663 3.75 3.47627 3.75 4.16663C3.75 4.85698 4.30964 5.41663 5 5.41663Z" stroke="white" stroke-linecap="round" stroke-linejoin="round"/>
</svg>
