<svg width="19" height="18" viewBox="0 0 19 18" fill="none" xmlns="http://www.w3.org/2000/svg">
<path d="M12.2748 18L6.1374 15.9L1.38092 17.7C1.03995 17.8333 0.724555 17.7958 0.434733 17.5875C0.144911 17.3792 0 17.1 0 16.75V2.75C0 2.53333 0.0639313 2.34167 0.191794 2.175C0.319656 2.00833 0.494402 1.88333 0.716031 1.8L6.1374 0L12.2748 2.1L17.0313 0.3C17.3723 0.166667 17.6877 0.204167 17.9775 0.4125C18.2673 0.620833 18.4122 0.9 18.4122 1.25V15.25C18.4122 15.4667 18.3483 15.6583 18.2204 15.825C18.0926 15.9917 17.9178 16.1167 17.6962 16.2L12.2748 18ZM11.2519 15.55V3.85L7.16031 2.45V14.15L11.2519 15.55ZM13.2977 15.55L16.3664 14.55V2.7L13.2977 3.85V15.55ZM2.0458 15.3L5.1145 14.15V2.45L2.0458 3.45V15.3Z"/>
</svg>
