<svg width="30" height="30" viewBox="0 0 30 30" fill="none" xmlns="http://www.w3.org/2000/svg">
<circle cx="15" cy="15" r="13.5" fill="white" stroke="#DF6C20" stroke-width="3"/>
<path d="M6.66669 12.9166C6.6667 11.9893 6.94801 11.0838 7.47346 10.3197C7.99891 9.55557 8.74378 8.96883 9.60969 8.63695C10.4756 8.30507 11.4218 8.24366 12.3234 8.46082C13.2249 8.67799 14.0394 9.16352 14.6592 9.85329C14.7028 9.89996 14.7556 9.93718 14.8143 9.96262C14.8729 9.98806 14.9361 10.0012 15 10.0012C15.0639 10.0012 15.1272 9.98806 15.1858 9.96262C15.2444 9.93718 15.2972 9.89996 15.3409 9.85329C15.9587 9.15904 16.7734 8.66943 17.6764 8.44962C18.5794 8.22982 19.5279 8.29024 20.3958 8.62286C21.2636 8.95547 22.0095 9.5445 22.5343 10.3115C23.0591 11.0786 23.3378 11.9873 23.3334 12.9166C23.3334 14.825 22.0834 16.25 20.8334 17.5L16.2567 21.9275C16.1014 22.1058 15.91 22.249 15.6951 22.3477C15.4802 22.4464 15.2467 22.4982 15.0103 22.4997C14.7738 22.5012 14.5397 22.4523 14.3236 22.3564C14.1075 22.2605 13.9142 22.1196 13.7567 21.9433L9.16669 17.5C7.91669 16.25 6.66669 14.8333 6.66669 12.9166Z" fill="#DF6C20" stroke="#DF6C20" stroke-width="1.66667" stroke-linecap="round" stroke-linejoin="round"/>
</svg>
