<svg width="36" height="36" viewBox="0 0 36 36" fill="none" xmlns="http://www.w3.org/2000/svg">
<g filter="url(#filter0_d_640_2924)">
<circle cx="18" cy="14" r="14" fill="white"/>
<mask id="mask0_640_2924" style="mask-type:alpha" maskUnits="userSpaceOnUse" x="9" y="5" width="18" height="18">
<rect x="9" y="5" width="18" height="18" fill="#D9D9D9"/>
</mask>
<g mask="url(#mask0_640_2924)">
<path d="M17.25 22.2121V20.7121C15.6875 20.5371 14.3469 19.8902 13.2281 18.7715C12.1094 17.6527 11.4625 16.3121 11.2875 14.7496H9.78748V13.2496H11.2875C11.4625 11.6871 12.1094 10.3465 13.2281 9.22773C14.3469 8.10898 15.6875 7.46211 17.25 7.28711V5.78711H18.75V7.28711C20.3125 7.46211 21.6531 8.10898 22.7719 9.22773C23.8906 10.3465 24.5375 11.6871 24.7125 13.2496H26.2125V14.7496H24.7125C24.5375 16.3121 23.8906 17.6527 22.7719 18.7715C21.6531 19.8902 20.3125 20.5371 18.75 20.7121V22.2121H17.25ZM21.7125 17.7121C22.7375 16.6871 23.25 15.4496 23.25 13.9996C23.25 12.5496 22.7375 11.3121 21.7125 10.2871C20.6875 9.26211 19.45 8.74961 18 8.74961C16.55 8.74961 15.3125 9.26211 14.2875 10.2871C13.2625 11.3121 12.75 12.5496 12.75 13.9996C12.75 15.4496 13.2625 16.6871 14.2875 17.7121C15.3125 18.7371 16.55 19.2496 18 19.2496C19.45 19.2496 20.6875 18.7371 21.7125 17.7121ZM15.8812 16.1184C15.2937 15.5309 15 14.8246 15 13.9996C15 13.1746 15.2937 12.4684 15.8812 11.8809C16.4687 11.2934 17.175 10.9996 18 10.9996C18.825 10.9996 19.5312 11.2934 20.1187 11.8809C20.7062 12.4684 21 13.1746 21 13.9996C21 14.8246 20.7062 15.5309 20.1187 16.1184C19.5312 16.7059 18.825 16.9996 18 16.9996C17.175 16.9996 16.4687 16.7059 15.8812 16.1184ZM19.0594 15.059C19.3531 14.7652 19.5 14.4121 19.5 13.9996C19.5 13.5871 19.3531 13.234 19.0594 12.9402C18.7656 12.6465 18.4125 12.4996 18 12.4996C17.5875 12.4996 17.2344 12.6465 16.9406 12.9402C16.6469 13.234 16.5 13.5871 16.5 13.9996C16.5 14.4121 16.6469 14.7652 16.9406 15.059C17.2344 15.3527 17.5875 15.4996 18 15.4996C18.4125 15.4996 18.7656 15.3527 19.0594 15.059Z" fill="#1C1B1F"/>
</g>
</g>
<defs>
<filter id="filter0_d_640_2924" x="0" y="0" width="36" height="36" filterUnits="userSpaceOnUse" color-interpolation-filters="sRGB">
<feFlood flood-opacity="0" result="BackgroundImageFix"/>
<feColorMatrix in="SourceAlpha" type="matrix" values="0 0 0 0 0 0 0 0 0 0 0 0 0 0 0 0 0 0 127 0" result="hardAlpha"/>
<feOffset dy="4"/>
<feGaussianBlur stdDeviation="2"/>
<feComposite in2="hardAlpha" operator="out"/>
<feColorMatrix type="matrix" values="0 0 0 0 0 0 0 0 0 0 0 0 0 0 0 0 0 0 0.25 0"/>
<feBlend mode="normal" in2="BackgroundImageFix" result="effect1_dropShadow_640_2924"/>
<feBlend mode="normal" in="SourceGraphic" in2="effect1_dropShadow_640_2924" result="shape"/>
</filter>
</defs>
</svg>
