<svg width="18" height="18" viewBox="0 0 18 18" fill="none" xmlns="http://www.w3.org/2000/svg">
<mask id="mask0_640_2919" style="mask-type:alpha" maskUnits="userSpaceOnUse" x="0" y="0" width="18" height="18">
<rect width="18" height="18" fill="#D9D9D9"/>
</mask>
<g mask="url(#mask0_640_2919)">
<path d="M8.24998 17.2121V15.7121C6.68748 15.5371 5.34685 14.8902 4.2281 13.7715C3.10935 12.6527 2.46248 11.3121 2.28748 9.74961H0.787476V8.24961H2.28748C2.46248 6.68711 3.10935 5.34648 4.2281 4.22773C5.34685 3.10898 6.68748 2.46211 8.24998 2.28711V0.787109H9.74998V2.28711C11.3125 2.46211 12.6531 3.10898 13.7719 4.22773C14.8906 5.34648 15.5375 6.68711 15.7125 8.24961H17.2125V9.74961H15.7125C15.5375 11.3121 14.8906 12.6527 13.7719 13.7715C12.6531 14.8902 11.3125 15.5371 9.74998 15.7121V17.2121H8.24998ZM12.7125 12.7121C13.7375 11.6871 14.25 10.4496 14.25 8.99961C14.25 7.54961 13.7375 6.31211 12.7125 5.28711C11.6875 4.26211 10.45 3.74961 8.99998 3.74961C7.54998 3.74961 6.31248 4.26211 5.28748 5.28711C4.26248 6.31211 3.74998 7.54961 3.74998 8.99961C3.74998 10.4496 4.26248 11.6871 5.28748 12.7121C6.31248 13.7371 7.54998 14.2496 8.99998 14.2496C10.45 14.2496 11.6875 13.7371 12.7125 12.7121ZM6.88123 11.1184C6.29373 10.5309 5.99998 9.82461 5.99998 8.99961C5.99998 8.17461 6.29373 7.46836 6.88123 6.88086C7.46873 6.29336 8.17498 5.99961 8.99998 5.99961C9.82498 5.99961 10.5312 6.29336 11.1187 6.88086C11.7062 7.46836 12 8.17461 12 8.99961C12 9.82461 11.7062 10.5309 11.1187 11.1184C10.5312 11.7059 9.82498 11.9996 8.99998 11.9996C8.17498 11.9996 7.46873 11.7059 6.88123 11.1184ZM10.0594 10.059C10.3531 9.76523 10.5 9.41211 10.5 8.99961C10.5 8.58711 10.3531 8.23398 10.0594 7.94023C9.7656 7.64648 9.41248 7.49961 8.99998 7.49961C8.58748 7.49961 8.23435 7.64648 7.9406 7.94023C7.64685 8.23398 7.49998 8.58711 7.49998 8.99961C7.49998 9.41211 7.64685 9.76523 7.9406 10.059C8.23435 10.3527 8.58748 10.4996 8.99998 10.4996C9.41248 10.4996 9.7656 10.3527 10.0594 10.059Z" fill="#1C1B1F"/>
</g>
</svg>
