<svg width="20" height="22" viewBox="0 0 20 22" fill="none" xmlns="http://www.w3.org/2000/svg">
<path d="M8.55664 19.5C8.70293 19.7533 8.91332 19.9637 9.16668 20.11C9.42003 20.2563 9.70743 20.3333 9.99997 20.3333C10.2925 20.3333 10.5799 20.2563 10.8333 20.11C11.0866 19.9637 11.297 19.7533 11.4433 19.5" stroke="#8C7B73" stroke-width="1.66667" stroke-linecap="round" stroke-linejoin="round"/>
<path d="M2.71833 14.7717C2.60947 14.891 2.53763 15.0394 2.51155 15.1988C2.48547 15.3582 2.50627 15.5217 2.57142 15.6695C2.63658 15.8173 2.74328 15.943 2.87855 16.0312C3.01381 16.1195 3.17182 16.1666 3.33333 16.1667H16.6667C16.8282 16.1667 16.9862 16.1199 17.1216 16.0318C17.2569 15.9437 17.3637 15.8181 17.4291 15.6704C17.4944 15.5228 17.5154 15.3593 17.4895 15.1998C17.4637 15.0404 17.392 14.892 17.2833 14.7725C16.175 13.63 15 12.4159 15 8.66669C15 7.3406 14.4732 6.06883 13.5355 5.13115C12.5979 4.19347 11.3261 3.66669 10 3.66669C8.67392 3.66669 7.40215 4.19347 6.46447 5.13115C5.52679 6.06883 5 7.3406 5 8.66669C5 12.4159 3.82417 13.63 2.71833 14.7717Z" stroke="#8C7B73" stroke-width="1.66667" stroke-linecap="round" stroke-linejoin="round"/>
<circle cx="16" cy="4" r="4" fill="#EF4444"/>
</svg>
