<svg width="20" height="20" viewBox="0 0 20 20" fill="none" xmlns="http://www.w3.org/2000/svg">
<mask id="mask0_1423_3225" style="mask-type:alpha" maskUnits="userSpaceOnUse" x="0" y="0" width="20" height="20">
<rect width="19.2" height="19.2" fill="#D9D9D9"/>
</mask>
<g mask="url(#mask0_1423_3225)">
<path d="M3.2 16.8V12.8C3.2 12.36 3.35667 11.9833 3.67 11.67C3.98333 11.3566 4.36 11.2 4.8 11.2H14.4C14.84 11.2 15.2167 11.3566 15.53 11.67C15.8433 11.9833 16 12.36 16 12.8V16.8H3.2ZM7.2 10.4C6.09333 10.4 5.15 10.01 4.37 9.22996C3.59 8.44996 3.2 7.50663 3.2 6.39996C3.2 5.2933 3.59 4.34996 4.37 3.56996C5.15 2.78996 6.09333 2.39996 7.2 2.39996H12C13.1067 2.39996 14.05 2.78996 14.83 3.56996C15.61 4.34996 16 5.2933 16 6.39996C16 7.50663 15.61 8.44996 14.83 9.22996C14.05 10.01 13.1067 10.4 12 10.4H7.2ZM4.8 15.2H14.4V12.8H4.8V15.2ZM7.2 8.79996H12C12.6667 8.79996 13.2333 8.56663 13.7 8.09996C14.1667 7.6333 14.4 7.06663 14.4 6.39996C14.4 5.7333 14.1667 5.16663 13.7 4.69996C13.2333 4.2333 12.6667 3.99996 12 3.99996H7.2C6.53333 3.99996 5.96667 4.2333 5.5 4.69996C5.03333 5.16663 4.8 5.7333 4.8 6.39996C4.8 7.06663 5.03333 7.6333 5.5 8.09996C5.96667 8.56663 6.53333 8.79996 7.2 8.79996ZM7.77 6.96996C7.92333 6.81663 8 6.62663 8 6.39996C8 6.1733 7.92333 5.9833 7.77 5.82996C7.61667 5.67663 7.42667 5.59996 7.2 5.59996C6.97333 5.59996 6.78333 5.67663 6.63 5.82996C6.47667 5.9833 6.4 6.1733 6.4 6.39996C6.4 6.62663 6.47667 6.81663 6.63 6.96996C6.78333 7.1233 6.97333 7.19996 7.2 7.19996C7.42667 7.19996 7.61667 7.1233 7.77 6.96996ZM12.57 6.96996C12.7233 6.81663 12.8 6.62663 12.8 6.39996C12.8 6.1733 12.7233 5.9833 12.57 5.82996C12.4167 5.67663 12.2267 5.59996 12 5.59996C11.7733 5.59996 11.5833 5.67663 11.43 5.82996C11.2767 5.9833 11.2 6.1733 11.2 6.39996C11.2 6.62663 11.2767 6.81663 11.43 6.96996C11.5833 7.1233 11.7733 7.19996 12 7.19996C12.2267 7.19996 12.4167 7.1233 12.57 6.96996Z" fill="#DF6C20"/>
</g>
</svg>
