<svg width="60" height="60" viewBox="0 0 60 60" fill="none" xmlns="http://www.w3.org/2000/svg">
<mask id="mask0_1576_3145" style="mask-type:alpha" maskUnits="userSpaceOnUse" x="0" y="0" width="60" height="60">
<rect width="60" height="60" fill="#D9D9D9"/>
</mask>
<g mask="url(#mask0_1576_3145)">
<path d="M47.5 52.5C45.875 52.5 44.4167 52.0312 43.125 51.0938C41.8333 50.1562 40.9375 48.9583 40.4375 47.5H27.5C24.75 47.5 22.3958 46.5208 20.4375 44.5625C18.4792 42.6042 17.5 40.25 17.5 37.5C17.5 34.75 18.4792 32.3958 20.4375 30.4375C22.3958 28.4792 24.75 27.5 27.5 27.5H32.5C33.875 27.5 35.0521 27.0104 36.0312 26.0312C37.0104 25.0521 37.5 23.875 37.5 22.5C37.5 21.125 37.0104 19.9479 36.0312 18.9688C35.0521 17.9896 33.875 17.5 32.5 17.5H19.5625C19.0208 18.9583 18.1146 20.1562 16.8438 21.0938C15.5729 22.0312 14.125 22.5 12.5 22.5C10.4167 22.5 8.64583 21.7708 7.1875 20.3125C5.72917 18.8542 5 17.0833 5 15C5 12.9167 5.72917 11.1458 7.1875 9.6875C8.64583 8.22917 10.4167 7.5 12.5 7.5C14.125 7.5 15.5729 7.96875 16.8438 8.90625C18.1146 9.84375 19.0208 11.0417 19.5625 12.5H32.5C35.25 12.5 37.6042 13.4792 39.5625 15.4375C41.5208 17.3958 42.5 19.75 42.5 22.5C42.5 25.25 41.5208 27.6042 39.5625 29.5625C37.6042 31.5208 35.25 32.5 32.5 32.5H27.5C26.125 32.5 24.9479 32.9896 23.9688 33.9688C22.9896 34.9479 22.5 36.125 22.5 37.5C22.5 38.875 22.9896 40.0521 23.9688 41.0312C24.9479 42.0104 26.125 42.5 27.5 42.5H40.4375C40.9792 41.0417 41.8854 39.8438 43.1562 38.9062C44.4271 37.9688 45.875 37.5 47.5 37.5C49.5833 37.5 51.3542 38.2292 52.8125 39.6875C54.2708 41.1458 55 42.9167 55 45C55 47.0833 54.2708 48.8542 52.8125 50.3125C51.3542 51.7708 49.5833 52.5 47.5 52.5ZM14.2812 16.7812C14.7604 16.3021 15 15.7083 15 15C15 14.2917 14.7604 13.6979 14.2812 13.2188C13.8021 12.7396 13.2083 12.5 12.5 12.5C11.7917 12.5 11.1979 12.7396 10.7188 13.2188C10.2396 13.6979 10 14.2917 10 15C10 15.7083 10.2396 16.3021 10.7188 16.7812C11.1979 17.2604 11.7917 17.5 12.5 17.5C13.2083 17.5 13.8021 17.2604 14.2812 16.7812Z" fill="#8C7B73"/>
</g>
</svg>
