<svg width="17" height="16" viewBox="0 0 17 16" fill="none" xmlns="http://www.w3.org/2000/svg">
<path d="M5.29351 6.825C4.49224 6.04167 4.0916 5.1 4.0916 4C4.0916 2.9 4.49224 1.95833 5.29351 1.175C6.09478 0.391667 7.05802 0 8.18321 0C9.3084 0 10.2716 0.391667 11.0729 1.175C11.8742 1.95833 12.2748 2.9 12.2748 4C12.2748 5.1 11.8742 6.04167 11.0729 6.825C10.2716 7.60833 9.3084 8 8.18321 8C7.05802 8 6.09478 7.60833 5.29351 6.825ZM0 16V13.2C0 12.6333 0.149173 12.1125 0.447519 11.6375C0.745865 11.1625 1.14224 10.8 1.63664 10.55C2.69364 10.0333 3.76768 9.64583 4.85878 9.3875C5.94987 9.12917 7.05802 9 8.18321 9C9.3084 9 10.4165 9.12917 11.5076 9.3875C12.5987 9.64583 13.6728 10.0333 14.7298 10.55C15.2242 10.8 15.6205 11.1625 15.9189 11.6375C16.2172 12.1125 16.3664 12.6333 16.3664 13.2V16H0ZM2.0458 14H14.3206V13.2C14.3206 13.0167 14.2737 12.85 14.18 12.7C14.0862 12.55 13.9626 12.4333 13.8092 12.35C12.8886 11.9 11.9594 11.5625 11.0218 11.3375C10.0841 11.1125 9.13791 11 8.18321 11C7.2285 11 6.28232 11.1125 5.34466 11.3375C4.407 11.5625 3.47786 11.9 2.55725 12.35C2.40382 12.4333 2.28022 12.55 2.18645 12.7C2.09268 12.85 2.0458 13.0167 2.0458 13.2V14ZM9.62805 5.4125C10.0287 5.02083 10.229 4.55 10.229 4C10.229 3.45 10.0287 2.97917 9.62805 2.5875C9.22742 2.19583 8.7458 2 8.18321 2C7.62061 2 7.139 2.19583 6.73836 2.5875C6.33772 2.97917 6.1374 3.45 6.1374 4C6.1374 4.55 6.33772 5.02083 6.73836 5.4125C7.139 5.80417 7.62061 6 8.18321 6C8.7458 6 9.22742 5.80417 9.62805 5.4125Z"/>
</svg>
