<svg width="19" height="18" viewBox="0 0 19 18" fill="none" xmlns="http://www.w3.org/2000/svg">
<path d="M16.9802 18L10.5359 11.7C10.0244 12.1 9.43626 12.4167 8.77137 12.65C8.10649 12.8833 7.39898 13 6.64886 13C4.79059 13 3.21788 12.3708 1.93073 11.1125C0.643575 9.85417 0 8.31667 0 6.5C0 4.68333 0.643575 3.14583 1.93073 1.8875C3.21788 0.629167 4.79059 0 6.64886 0C8.50712 0 10.0798 0.629167 11.367 1.8875C12.6541 3.14583 13.2977 4.68333 13.2977 6.5C13.2977 7.23333 13.1784 7.925 12.9397 8.575C12.701 9.225 12.3771 9.8 11.9679 10.3L18.4122 16.6L16.9802 18ZM6.64886 11C7.92748 11 9.01431 10.5625 9.90935 9.6875C10.8044 8.8125 11.2519 7.75 11.2519 6.5C11.2519 5.25 10.8044 4.1875 9.90935 3.3125C9.01431 2.4375 7.92748 2 6.64886 2C5.37023 2 4.2834 2.4375 3.38836 3.3125C2.49332 4.1875 2.0458 5.25 2.0458 6.5C2.0458 7.75 2.49332 8.8125 3.38836 9.6875C4.2834 10.5625 5.37023 11 6.64886 11Z"/>
</svg>
